# xmcd
#
# Track frame offsets:
#	182
#	17262
#	35230
#	57362
#	76920
#	95390
#	112172
#	129730
#	147507
#	166540
#	180957
#
# Disc length: 2653 seconds
#
# Revision: 14
# Processed by: cddbd v1.5.2PL0 Copyright (c) Steve Scherf et al.
# Submitted via: EasyCDDAExtractor 15.3.0.1
#
DISCID=890a5b0b
DTITLE=Nek
DYEAR=1997
DGENRE=Latin
TTITLE0=Laura No Esta
TTITLE1=Tu Nombre
TTITLE2=Esperame
TTITLE3=Tu Estas Aqui
TTITLE4=Tu
TTITLE5=Dime Por Que
TTITLE6=Como Vivir Sin Ti
TTITLE7=Nada Como Vivir
TTITLE8=Queda Mucho Mas
TTITLE9=Seguimos Juntos
TTITLE10=Laura No Esta (Radio Vocal Version)
EXTD=YEAR: 1998
EXTT0=
EXTT1=
EXTT2=
EXTT3=
EXTT4=
EXTT5=
EXTT6=
EXTT7=
EXTT8=
EXTT9=
EXTT10=
PLAYORDER=
